  0
SECTION
  2
HEADER
  9
$ACADVER
  1
AC1015
  9
$ACADMAINTVER
 70
     6
  9
$DWGCODEPAGE
  3
ANSI_1252
  9
$INSBASE
 10
0.0
 20
0.0
 30
0.0
  9
$EXTMIN
 10
-132.1231159387
 20
-73.1586853383
 30
0.0
  9
$EXTMAX
 10
132.123115939
 20
79.95
 30
0.0
  9
$LIMMIN
 10
0.0
 20
0.0
  9
$LIMMAX
 10
420.0
 20
297.0
  9
$ORTHOMODE
 70
     0
  9
$REGENMODE
 70
     1
  9
$FILLMODE
 70
     1
  9
$QTEXTMODE
 70
     0
  9
$MIRRTEXT
 70
     1
  9
$LTSCALE
 40
1.0
  9
$ATTMODE
 70
     1
  9
$TEXTSIZE
 40
3.5
  9
$TRACEWID
 40
1.0
  9
$TEXTSTYLE
  7
Standard
  9
$CLAYER
  8
0
  9
$CELTYPE
  6
ByLayer
  9
$CECOLOR
 62
   256
  9
$CELTSCALE
 40
1.0
  9
$DISPSILH
 70
     0
  9
$DIMSCALE
 40
1.0
  9
$DIMASZ
 40
3.302
  9
$DIMEXO
 40
1.0
  9
$DIMDLI
 40
3.75
  9
$DIMRND
 40
0.0
  9
$DIMDLE
 40
0.0
  9
$DIMEXE
 40
1.0
  9
$DIMTP
 40
0.0
  9
$DIMTM
 40
0.0
  9
$DIMTXT
 40
3.5
  9
$DIMCEN
 40
2.5
  9
$DIMTSZ
 40
0.0
  9
$DIMTOL
 70
     0
  9
$DIMLIM
 70
     0
  9
$DIMTIH
 70
     1
  9
$DIMTOH
 70
     1
  9
$DIMSE1
 70
     0
  9
$DIMSE2
 70
     0
  9
$DIMTAD
 70
     1
  9
$DIMZIN
 70
     0
  9
$DIMBLK
  1

  9
$DIMASO
 70
     1
  9
$DIMSHO
 70
     1
  9
$DIMPOST
  1

  9
$DIMAPOST
  1

  9
$DIMALT
 70
     0
  9
$DIMALTD
 70
     3
  9
$DIMALTF
 40
0.0393700787
  9
$DIMLFAC
 40
1.0
  9
$DIMTOFL
 70
     1
  9
$DIMTVP
 40
0.0
  9
$DIMTIX
 70
     0
  9
$DIMSOXD
 70
     0
  9
$DIMSAH
 70
     0
  9
$DIMBLK1
  1

  9
$DIMBLK2
  1

  9
$DIMSTYLE
  2
ISO-25
  9
$DIMCLRD
 70
     0
  9
$DIMCLRE
 70
     0
  9
$DIMCLRT
 70
     0
  9
$DIMTFAC
 40
1.0
  9
$DIMGAP
 40
1.524
  9
$DIMJUST
 70
     0
  9
$DIMSD1
 70
     0
  9
$DIMSD2
 70
     0
  9
$DIMTOLJ
 70
     0
  9
$DIMTZIN
 70
     0
  9
$DIMALTZ
 70
     0
  9
$DIMALTTZ
 70
     0
  9
$DIMUPT
 70
     0
  9
$DIMDEC
 70
     2
  9
$DIMTDEC
 70
     2
  9
$DIMALTU
 70
     2
  9
$DIMALTTD
 70
     3
  9
$DIMTXSTY
  7
Standard
  9
$DIMAUNIT
 70
     0
  9
$DIMADEC
 70
     2
  9
$DIMALTRND
 40
0.0
  9
$DIMAZIN
 70
     0
  9
$DIMDSEP
 70
    44
  9
$DIMATFIT
 70
     3
  9
$DIMFRAC
 70
     0
  9
$DIMLDRBLK
  1

  9
$DIMLUNIT
 70
     2
  9
$DIMLWD
 70
    -2
  9
$DIMLWE
 70
    -2
  9
$DIMTMOVE
 70
     0
  9
$LUNITS
 70
     2
  9
$LUPREC
 70
     2
  9
$SKETCHINC
 40
1.0
  9
$FILLETRAD
 40
10.0
  9
$AUNITS
 70
     0
  9
$AUPREC
 70
     2
  9
$MENU
  1
.
  9
$ELEVATION
 40
0.0
  9
$PELEVATION
 40
0.0
  9
$THICKNESS
 40
0.0
  9
$LIMCHECK
 70
     0
  9
$CHAMFERA
 40
0.0
  9
$CHAMFERB
 40
0.0
  9
$CHAMFERC
 40
0.0
  9
$CHAMFERD
 40
0.0
  9
$SKPOLY
 70
     0
  9
$TDCREATE
 40
2457430.755960671
  9
$TDUCREATE
 40
2457430.714294005
  9
$TDUPDATE
 40
2457430.756057072
  9
$TDUUPDATE
 40
2457430.714390405
  9
$TDINDWG
 40
0.0000000116
  9
$TDUSRTIMER
 40
0.0000000116
  9
$USRTIMER
 70
     1
  9
$ANGBASE
 50
0.0
  9
$ANGDIR
 70
     0
  9
$PDMODE
 70
     0
  9
$PDSIZE
 40
-1.0
  9
$PLINEWID
 40
0.0
  9
$SPLFRAME
 70
     0
  9
$SPLINETYPE
 70
     6
  9
$SPLINESEGS
 70
     8
  9
$HANDSEED
  5
DA
  9
$SURFTAB1
 70
     6
  9
$SURFTAB2
 70
     6
  9
$SURFTYPE
 70
     6
  9
$SURFU
 70
     6
  9
$SURFV
 70
     6
  9
$UCSBASE
  2

  9
$UCSNAME
  2

  9
$UCSORG
 10
0.0
 20
0.0
 30
0.0
  9
$UCSXDIR
 10
1.0
 20
0.0
 30
0.0
  9
$UCSYDIR
 10
0.0
 20
1.0
 30
0.0
  9
$UCSORTHOREF
  2

  9
$UCSORTHOVIEW
 70
     0
  9
$UCSORGTOP
 10
0.0
 20
0.0
 30
0.0
  9
$UCSORGBOTTOM
 10
0.0
 20
0.0
 30
0.0
  9
$UCSORGLEFT
 10
0.0
 20
0.0
 30
0.0
  9
$UCSORGRIGHT
 10
0.0
 20
0.0
 30
0.0
  9
$UCSORGFRONT
 10
0.0
 20
0.0
 30
0.0
  9
$UCSORGBACK
 10
0.0
 20
0.0
 30
0.0
  9
$PUCSBASE
  2

  9
$PUCSNAME
  2

  9
$PUCSORG
 10
0.0
 20
0.0
 30
0.0
  9
$PUCSXDIR
 10
1.0
 20
0.0
 30
0.0
  9
$PUCSYDIR
 10
0.0
 20
1.0
 30
0.0
  9
$PUCSORTHOREF
  2

  9
$PUCSORTHOVIEW
 70
     0
  9
$PUCSORGTOP
 10
0.0
 20
0.0
 30
0.0
  9
$PUCSORGBOTTOM
 10
0.0
 20
0.0
 30
0.0
  9
$PUCSORGLEFT
 10
0.0
 20
0.0
 30
0.0
  9
$PUCSORGRIGHT
 10
0.0
 20
0.0
 30
0.0
  9
$PUCSORGFRONT
 10
0.0
 20
0.0
 30
0.0
  9
$PUCSORGBACK
 10
0.0
 20
0.0
 30
0.0
  9
$USERI1
 70
     0
  9
$USERI2
 70
     0
  9
$USERI3
 70
     0
  9
$USERI4
 70
     0
  9
$USERI5
 70
     0
  9
$USERR1
 40
0.0
  9
$USERR2
 40
0.0
  9
$USERR3
 40
0.0
  9
$USERR4
 40
0.0
  9
$USERR5
 40
0.0
  9
$WORLDVIEW
 70
     1
  9
$SHADEDGE
 70
     3
  9
$SHADEDIF
 70
    70
  9
$TILEMODE
 70
     1
  9
$MAXACTVP
 70
    64
  9
$PINSBASE
 10
0.0
 20
0.0
 30
0.0
  9
$PLIMCHECK
 70
     0
  9
$PEXTMIN
 10
1.0000000000E+20
 20
1.0000000000E+20
 30
1.0000000000E+20
  9
$PEXTMAX
 10
-1.0000000000E+20
 20
-1.0000000000E+20
 30
-1.0000000000E+20
  9
$PLIMMIN
 10
0.0
 20
0.0
  9
$PLIMMAX
 10
420.0
 20
297.0
  9
$UNITMODE
 70
     0
  9
$VISRETAIN
 70
     1
  9
$PLINEGEN
 70
     0
  9
$PSLTSCALE
 70
     1
  9
$TREEDEPTH
 70
  3020
  9
$CMLSTYLE
  2
Standard
  9
$CMLJUST
 70
     0
  9
$CMLSCALE
 40
20.0
  9
$PROXYGRAPHICS
 70
     1
  9
$MEASUREMENT
 70
     1
  9
$CELWEIGHT
370
    -1
  9
$ENDCAPS
280
     0
  9
$JOINSTYLE
280
     0
  9
$LWDISPLAY
290
     1
  9
$INSUNITS
 70
     4
  9
$HYPERLINKBASE
  1

  9
$STYLESHEET
  1

  9
$XEDIT
290
     1
  9
$CEPSNTYPE
380
     0
  9
$PSTYLEMODE
290
     1
  9
$FINGERPRINTGUID
  2
{07841F84-EF55-4BEB-82E7-A595123B0667}
  9
$VERSIONGUID
  2
{FAEB1C32-E019-11D5-929B-00C0DF256EC4}
  9
$EXTNAMES
290
     1
  9
$PSVPSCALE
 40
0.0
  9
$OLESTARTUP
290
     0
  0
ENDSEC
  0
SECTION
  2
CLASSES
  0
CLASS
  1
ACDBDICTIONARYWDFLT
  2
AcDbDictionaryWithDefault
  3
ObjectDBX Classes
 90
        0
280
     0
281
     0
  0
CLASS
  1
VISUALSTYLE
  2
AcDbVisualStyle
  3
ObjectDBX Classes
 90
     4095
280
     0
281
     0
  0
CLASS
  1
MATERIAL
  2
AcDbMaterial
  3
ObjectDBX Classes
 90
     1153
280
     0
281
     0
  0
CLASS
  1
SCALE
  2
AcDbScale
  3
ObjectDBX Classes
 90
     1153
280
     0
281
     0
  0
CLASS
  1
SUN
  2
AcDbSun
  3
SCENEOE
 90
     1153
280
     0
281
     0
  0
CLASS
  1
ACDBPLACEHOLDER
  2
AcDbPlaceHolder
  3
ObjectDBX Classes
 90
        0
280
     0
281
     0
  0
CLASS
  1
LAYOUT
  2
AcDbLayout
  3
ObjectDBX Classes
 90
        0
280
     0
281
     0
  0
ENDSEC
  0
SECTION
  2
TABLES
  0
TABLE
  2
VPORT
  5
8
330
0
100
AcDbSymbolTable
 70
     1
  0
VPORT
  5
29
330
8
100
AcDbSymbolTableRecord
100
AcDbViewportTableRecord
  2
*Active
 70
     0
 10
0.0
 20
0.0
 11
1.0
 21
1.0
 12
0.0000000001
 22
3.3956573309
 13
0.0
 23
0.0
 14
10.0
 24
10.0
 15
10.0
 25
10.0
 16
0.0
 26
0.0
 36
1.0
 17
0.0
 27
0.0
 37
0.0
 40
156.170859045
 41
1.7258735603
 42
50.0
 43
0.0
 44
0.0
 50
0.0
 51
0.0
 71
     0
 72
   100
 73
     1
 74
     3
 75
     0
 76
     0
 77
     0
 78
     0
281
     0
 65
     1
110
0.0
120
0.0
130
0.0
111
1.0
121
0.0
131
0.0
112
0.0
122
1.0
132
0.0
 79
     0
146
0.0
  0
ENDTAB
  0
TABLE
  2
LTYPE
  5
5
330
0
100
AcDbSymbolTable
 70
     6
  0
LTYPE
  5
14
330
5
100
AcDbSymbolTableRecord
100
AcDbLinetypeTableRecord
  2
ByBlock
 70
     0
  3

 72
    65
 73
     0
 40
0.0
  0
LTYPE
  5
15
330
5
100
AcDbSymbolTableRecord
100
AcDbLinetypeTableRecord
  2
ByLayer
 70
     0
  3

 72
    65
 73
     0
 40
0.0
  0
LTYPE
  5
16
330
5
100
AcDbSymbolTableRecord
100
AcDbLinetypeTableRecord
  2
Continuous
 70
     0
  3
Solid line
 72
    65
 73
     0
 40
0.0
  0
LTYPE
  5
6A
330
5
100
AcDbSymbolTableRecord
100
AcDbLinetypeTableRecord
  2
HIDDEN
 70
     0
  3
Hidden __ __ __ __ __ __ __ __ __ __ __ __ __ __
 72
    65
 73
     2
 40
1.905
 49
1.27
 74
     0
 49
-0.635
 74
     0
  0
LTYPE
  5
6B
330
5
100
AcDbSymbolTableRecord
100
AcDbLinetypeTableRecord
  2
PHANTOM
 70
     0
  3
Phantom ______  __  __  ______  __  __  ______
 72
    65
 73
     6
 40
12.7
 49
6.35
 74
     0
 49
-1.27
 74
     0
 49
1.27
 74
     0
 49
-1.27
 74
     0
 49
1.27
 74
     0
 49
-1.27
 74
     0
  0
LTYPE
  5
6C
330
5
100
AcDbSymbolTableRecord
100
AcDbLinetypeTableRecord
  2
CENTER
 70
     0
  3
Center ____ _ ____ _ ____ _ ____ _ ____ _ ____
 72
    65
 73
     4
 40
10.16
 49
6.35
 74
     0
 49
-1.27
 74
     0
 49
1.27
 74
     0
 49
-1.27
 74
     0
  0
LTYPE
  5
6D
330
5
100
AcDbSymbolTableRecord
100
AcDbLinetypeTableRecord
  2
CENTERX2
 70
     0
  3
Center (2x) ________  __  ________  __  _____
 72
    65
 73
     4
 40
20.32
 49
12.7
 74
     0
 49
-2.54
 74
     0
 49
2.54
 74
     0
 49
-2.54
 74
     0
  0
LTYPE
  5
6E
330
5
100
AcDbSymbolTableRecord
100
AcDbLinetypeTableRecord
  2
DOT2
 70
     0
  3
Dot (.5x) ........................................
 72
    65
 73
     2
 40
0.635
 49
0.0
 74
     0
 49
-0.635
 74
     0
  0
ENDTAB
  0
TABLE
  2
LAYER
  5
2
330
0
100
AcDbSymbolTable
 70
     1
  0
LAYER
  5
10
330
2
100
AcDbSymbolTableRecord
100
AcDbLayerTableRecord
  2
0
 70
     0
 62
     7
  6
Continuous
370
    -3
390
F
  0
ENDTAB
  0
TABLE
  2
STYLE
  5
3
330
0
100
AcDbSymbolTable
 70
     2
  0
STYLE
  5
11
330
3
100
AcDbSymbolTableRecord
100
AcDbTextStyleTableRecord
  2
Standard
 70
     0
 40
0.0
 41
1.0
 50
0.0
 71
     0
 42
3.5
  3
txt
  4

  0
STYLE
  5
D7
330
3
100
AcDbSymbolTableRecord
100
AcDbTextStyleTableRecord
  2
SLDTEXTSTYLE0
 70
     0
 40
0.0
 41
0.7
 50
0.0
 71
     0
 42
3.5
  3
TXT
  4

  0
ENDTAB
  0
TABLE
  2
VIEW
  5
6
330
0
100
AcDbSymbolTable
 70
     0
  0
ENDTAB
  0
TABLE
  2
UCS
  5
7
330
0
100
AcDbSymbolTable
 70
     0
  0
ENDTAB
  0
TABLE
  2
APPID
  5
9
330
0
100
AcDbSymbolTable
 70
     1
  0
APPID
  5
12
330
9
100
AcDbSymbolTableRecord
100
AcDbRegAppTableRecord
  2
ACAD
 70
     0
  0
ENDTAB
  0
TABLE
  2
DIMSTYLE
  5
A
330
0
100
AcDbSymbolTable
 70
     1
100
AcDbDimStyleTable
  0
DIMSTYLE
105
27
330
A
100
AcDbSymbolTableRecord
100
AcDbDimStyleTableRecord
  2
ISO-25
 70
     0
 41
2.5
 42
0.625
 43
3.75
 44
1.25
 73
     0
 74
     0
 77
     1
 78
     8
140
2.5
141
2.5
143
0.0393700787
147
0.625
171
     3
172
     1
178
     0
271
     2
272
     2
274
     3
278
    44
283
     0
284
     8
340
11
  0
ENDTAB
  0
TABLE
  2
BLOCK_RECORD
  5
1
330
0
100
AcDbSymbolTable
 70
     1
  0
BLOCK_RECORD
  5
1F
330
1
100
AcDbSymbolTableRecord
100
AcDbBlockTableRecord
  2
*Model_Space
340
22
  0
BLOCK_RECORD
  5
1B
330
1
100
AcDbSymbolTableRecord
100
AcDbBlockTableRecord
  2
*Paper_Space
340
1E
  0
BLOCK_RECORD
  5
23
330
1
100
AcDbSymbolTableRecord
100
AcDbBlockTableRecord
  2
*Paper_Space0
340
26
  0
ENDTAB
  0
ENDSEC
  0
SECTION
  2
BLOCKS
  0
BLOCK
  5
20
330
1F
100
AcDbEntity
  8
0
100
AcDbBlockBegin
  2
*Model_Space
 70
     0
 10
0.0
 20
0.0
 30
0.0
  3
*Model_Space
  1
*Model_Space
  0
ENDBLK
  5
21
330
1F
100
AcDbEntity
  8
0
100
AcDbBlockEnd
  0
BLOCK
  5
1C
330
1B
100
AcDbEntity
 67
     1
  8
0
100
AcDbBlockBegin
  2
*Paper_Space
 70
     0
 10
0.0
 20
0.0
 30
0.0
  3
*Paper_Space
  1
*Paper_Space
  0
ENDBLK
  5
1D
330
1B
100
AcDbEntity
 67
     1
  8
0
100
AcDbBlockEnd
  0
BLOCK
  5
24
330
23
100
AcDbEntity
  8
0
100
AcDbBlockBegin
  2
*Paper_Space0
 70
     0
 10
0.0
 20
0.0
 30
0.0
  3
*Paper_Space0
  1
*Paper_Space0
  0
ENDBLK
  5
25
330
23
100
AcDbEntity
  8
0
100
AcDbBlockEnd
  0
ENDSEC
  0
SECTION
  2
ENTITIES
  0
CIRCLE
  5
72
330
1F
100
AcDbEntity
  8
0
  6
Continuous
 62
     7
370
    15
100
AcDbCircle
 10
-111.0
 20
58.0
 30
0.0
 40
6.649999999999984
  0
CIRCLE
  5
73
330
1F
100
AcDbEntity
  8
0
  6
Continuous
 62
     7
370
    15
100
AcDbCircle
 10
-64.5777948981
 20
6.0
 30
0.0
 40
6.649999999999992
  0
CIRCLE
  5
74
330
1F
100
AcDbEntity
  8
0
  6
Continuous
 62
     7
370
    15
100
AcDbCircle
 10
64.5777948981
 20
6.0
 30
0.0
 40
6.649999999999992
  0
CIRCLE
  5
75
330
1F
100
AcDbEntity
  8
0
  6
Continuous
 62
     7
370
    15
100
AcDbCircle
 10
63.3761332977
 20
54.2767831141
 30
0.0
 40
6.650000000000006
  0
CIRCLE
  5
76
330
1F
100
AcDbEntity
  8
0
  6
Continuous
 62
     7
370
    15
100
AcDbCircle
 10
-57.5
 20
-23.1531270944
 30
0.0
 40
6.649999999999995
  0
CIRCLE
  5
77
330
1F
100
AcDbEntity
  8
0
  6
Continuous
 62
     7
370
    15
100
AcDbCircle
 10
32.4600319489
 20
-46.1531270944
 30
0.0
 40
4.700000000000017
  0
CIRCLE
  5
78
330
1F
100
AcDbEntity
  8
0
  6
Continuous
 62
     7
370
    15
100
AcDbCircle
 10
117.25
 20
-21.0
 30
0.0
 40
2.499999999999986
  0
CIRCLE
  5
79
330
1F
100
AcDbEntity
  8
0
  6
Continuous
 62
     7
370
    15
100
AcDbCircle
 10
88.0
 20
6.0
 30
0.0
 40
2.499999999999991
  0
CIRCLE
  5
7A
330
1F
100
AcDbEntity
  8
0
  6
Continuous
 62
     7
370
    15
100
AcDbCircle
 10
-31.0
 20
55.5
 30
0.0
 40
2.0
  0
CIRCLE
  5
7B
330
1F
100
AcDbEntity
  8
0
  6
Continuous
 62
     7
370
    15
100
AcDbCircle
 10
31.0
 20
55.5
 30
0.0
 40
2.0
  0
CIRCLE
  5
7C
330
1F
100
AcDbEntity
  8
0
  6
Continuous
 62
     7
370
    15
100
AcDbCircle
 10
31.0
 20
73.5
 30
0.0
 40
1.999999999999986
  0
CIRCLE
  5
7D
330
1F
100
AcDbEntity
  8
0
  6
Continuous
 62
     7
370
    15
100
AcDbCircle
 10
-86.6125295853
 20
63.500116978
 30
0.0
 40
6.65000000000002
  0
SPLINE
  5
7E
330
1F
100
AcDbEntity
  8
0
  6
Continuous
 62
     7
370
    15
100
AcDbSpline
210
0.0
220
0.0
230
1.0
 70
     8
 71
     3
 72
    42
 73
    38
 74
     0
 42
0.000000001
 43
0.00000001
 40
0.0
 40
0.0
 40
0.0
 40
0.0
 40
0.03125
 40
0.03125
 40
0.0625
 40
0.0625
 40
0.09375
 40
0.09375
 40
0.125
 40
0.125
 40
0.1875
 40
0.1875
 40
0.25
 40
0.25
 40
0.3125
 40
0.3125
 40
0.375
 40
0.375
 40
0.5
 40
0.5
 40
0.625
 40
0.625
 40
0.6875
 40
0.6875
 40
0.75
 40
0.75
 40
0.8125
 40
0.8125
 40
0.875
 40
0.875
 40
0.90625
 40
0.90625
 40
0.9375
 40
0.9375
 40
0.96875
 40
0.96875
 40
1.0
 40
1.0
 40
1.0
 40
1.0
 10
-70.0
 20
78.0
 30
0.0
 10
-67.29166666666667
 20
78.11607142857143
 30
0.0
 10
-64.76655245117702
 20
78.22234519345102
 30
0.0
 10
-60.00798335784161
 20
78.41903411689383
 30
0.0
 10
-57.7747422673343
 20
78.5094384259964
 30
0.0
 10
-53.54371615051559
 20
78.6771741500685
 30
0.0
 10
-51.5460732226142
 20
78.75449836516913
 30
0.0
 10
-47.74277236920265
 20
78.89820499576614
 30
0.0
 10
-45.93721144967684
 20
78.96458250890385
 30
0.0
 10
-40.75715604801479
 20
79.1497823506134
 30
0.0
 10
-37.61693685227243
 20
79.25479677343566
 30
0.0
 10
-31.7635941211789
 20
79.43723862479445
 30
0.0
 10
-29.05161918675433
 20
79.5146092037984
 30
0.0
 10
-23.92135378621866
 20
79.64755295836378
 30
0.0
 10
-21.50370750824753
 20
79.7030955187895
 30
0.0
 10
-16.86497112144252
 20
79.7960888205254
 30
0.0
 10
-14.64427224904323
 20
79.83352265812
 30
0.0
 10
-8.163684801276602
 20
79.92212665828231
 30
0.0
 10
-4.083333333333339
 20
79.95000000000002
 30
0.0
 10
4.083333333333321
 20
79.95
 30
0.0
 10
8.163684801276588
 20
79.9221266582823
 30
0.0
 10
14.64427224904323
 20
79.83352265812002
 30
0.0
 10
16.86497112144253
 20
79.7960888205254
 30
0.0
 10
21.50370750824753
 20
79.7030955187895
 30
0.0
 10
23.92135378621865
 20
79.64755295836378
 30
0.0
 10
29.05161918675432
 20
79.5146092037984
 30
0.0
 10
31.7635941211789
 20
79.43723862479443
 30
0.0
 10
37.61693685227244
 20
79.25479677343566
 30
0.0
 10
40.75715604801476
 20
79.14978235061338
 30
0.0
 10
45.93721144967683
 20
78.96458250890385
 30
0.0
 10
47.74277236920266
 20
78.89820499576614
 30
0.0
 10
51.5460732226142
 20
78.75449836516911
 30
0.0
 10
53.5437161505156
 20
78.67717415006851
 30
0.0
 10
57.77474226733429
 20
78.5094384259964
 30
0.0
 10
60.0079833578416
 20
78.41903411689383
 30
0.0
 10
64.766552451177
 20
78.22234519345102
 30
0.0
 10
67.2916666666667
 20
78.11607142857143
 30
0.0
 10
70.00000000000003
 20
78.0
 30
0.0
  0
CIRCLE
  5
7F
330
1F
100
AcDbEntity
  8
0
  6
Continuous
 62
     7
370
    15
100
AcDbCircle
 10
-63.3761332977
 20
54.2767831141
 30
0.0
 40
6.649999999999984
  0
CIRCLE
  5
80
330
1F
100
AcDbEntity
  8
0
  6
Continuous
 62
     7
370
    15
100
AcDbCircle
 10
57.5
 20
-23.1531270944
 30
0.0
 40
6.650000000000009
  0
CIRCLE
  5
81
330
1F
100
AcDbEntity
  8
0
  6
Continuous
 62
     7
370
    15
100
AcDbCircle
 10
-57.5
 20
29.9771728813
 30
0.0
 40
6.650000000000002
  0
CIRCLE
  5
82
330
1F
100
AcDbEntity
  8
0
  6
Continuous
 62
     7
370
    15
100
AcDbCircle
 10
57.5
 20
29.9771728813
 30
0.0
 40
6.650000000000016
  0
CIRCLE
  5
83
330
1F
100
AcDbEntity
  8
0
  6
Continuous
 62
     7
370
    15
100
AcDbCircle
 10
23.8156986041
 20
13.75
 30
0.0
 40
1.999999999999998
  0
CIRCLE
  5
84
330
1F
100
AcDbEntity
  8
0
  6
Continuous
 62
     7
370
    15
100
AcDbCircle
 10
0.0
 20
27.5
 30
0.0
 40
2.0
  0
CIRCLE
  5
85
330
1F
100
AcDbEntity
  8
0
  6
Continuous
 62
     7
370
    15
100
AcDbCircle
 10
117.3
 20
34.5
 30
0.0
 40
2.499999999999993
  0
CIRCLE
  5
86
330
1F
100
AcDbEntity
  8
0
  6
Continuous
 62
     7
370
    15
100
AcDbCircle
 10
101.0868683438
 20
-59.8740429451
 30
0.0
 40
2.500000000000007
  0
CIRCLE
  5
87
330
1F
100
AcDbEntity
  8
0
  6
Continuous
 62
     7
370
    15
100
AcDbCircle
 10
86.6125295853
 20
63.500116978
 30
0.0
 40
6.650000000000027
  0
SPLINE
  5
88
330
1F
100
AcDbEntity
  8
0
  6
Continuous
 62
     7
370
    15
100
AcDbSpline
210
0.0
220
0.0
230
1.0
 70
     8
 71
     3
 72
    46
 73
    42
 74
     0
 42
0.000000001
 43
0.00000001
 40
0.0
 40
0.0
 40
0.0
 40
0.0
 40
0.0312499999999998
 40
0.0312499999999998
 40
0.0624999999999995
 40
0.0624999999999995
 40
0.0937499999999993
 40
0.0937499999999993
 40
0.1249999999999991
 40
0.1249999999999991
 40
0.1562499999999988
 40
0.1562499999999988
 40
0.1874999999999986
 40
0.1874999999999986
 40
0.2499999999999987
 40
0.2499999999999987
 40
0.3124999999999988
 40
0.3124999999999988
 40
0.3749999999999991
 40
0.3749999999999991
 40
0.4374999999999991
 40
0.4374999999999991
 40
0.4999999999999992
 40
0.4999999999999992
 40
0.5624999999999993
 40
0.5624999999999993
 40
0.6249999999999993
 40
0.6249999999999993
 40
0.6874999999999994
 40
0.6874999999999994
 40
0.7499999999999996
 40
0.7499999999999996
 40
0.8124999999999997
 40
0.8124999999999997
 40
0.8749999999999997
 40
0.8749999999999997
 40
0.9374999999999998
 40
0.9374999999999998
 40
0.9687499999999999
 40
0.9687499999999999
 40
1.0
 40
1.0
 40
1.0
 40
1.0
 10
85.00000000000001
 20
-2.999999999999999
 30
0.0
 10
86.1666666666667
 20
-2.999999999999999
 30
0.0
 10
87.32352322359252
 20
-2.97293219649881
 30
0.0
 10
89.57145576024946
 20
-2.910935841218279
 30
0.0
 10
90.66264037084184
 20
-2.876018924270129
 30
0.0
 10
92.74795279362705
 20
-2.837758050085712
 30
0.0
 10
93.74217285083262
 20
-2.834418308976959
 30
0.0
 10
95.61390450015942
 20
-2.891630399756675
 30
0.0
 10
96.49149375510031
 20
-2.952180003088433
 30
0.0
 10
98.11939504497502
 20
-3.162348265259056
 30
0.0
 10
98.86977184901451
 20
-3.311959174047378
 30
0.0
 10
100.2396324372973
 20
-3.718439655780103
 30
0.0
 10
100.8591696702348
 20
-3.975296829541461
 30
0.0
 10
102.5237967765293
 20
-4.924017374177565
 30
0.0
 10
103.3737522109963
 20
-5.796838114857435
 30
0.0
 10
104.6065540163852
 20
-8.042418113349663
 30
0.0
 10
104.9902942898948
 20
-9.414488567153548
 30
0.0
 10
105.3717880365448
 20
-12.59515143782163
 30
0.0
 10
105.3700708230268
 20
-14.40296761829076
 30
0.0
 10
105.0667922439607
 20
-18.33236203253156
 30
0.0
 10
104.7655085298299
 20
-20.45314922305422
 30
0.0
 10
103.9425707226037
 20
-24.85016435369608
 30
0.0
 10
103.4210260611795
 20
-27.12564605700562
 30
0.0
 10
102.2248643872849
 20
-31.66144836401125
 30
0.0
 10
101.5502425437747
 20
-33.92111413839097
 30
0.0
 10
100.1016633209691
 20
-38.26358871276558
 30
0.0
 10
99.32761131981466
 20
-40.34586767975199
 30
0.0
 10
97.72190688527427
 20
-44.19866808242008
 30
0.0
 10
96.8900650259587
 20
-45.96880525797641
 30
0.0
 10
95.20272685675059
 20
-49.10299652475177
 30
0.0
 10
94.3469118184629
 20
-50.4668194930645
 30
0.0
 10
92.64524250442739
 20
-52.74387971119954
 30
0.0
 10
91.79887621428077
 20
-53.6570335274311
 30
0.0
 10
90.16157018701632
 20
-55.04276012359283
 30
0.0
 10
89.36983168081453
 20
-55.51537869910489
 30
0.0
 10
87.91836371105317
 20
-56.08502631298599
 30
0.0
 10
87.25742576989956
 20
-56.18219890372742
 30
0.0
 10
86.46799795809483
 20
-56.13401706782883
 30
0.0
 10
86.23910582633675
 20
-56.08602449346279
 30
0.0
 10
85.8764370680052
 20
-55.94521878943739
 30
0.0
 10
85.74259447100292
 20
-55.85241206597762
 30
0.0
 10
85.67373668750392
 20
-55.74808589015741
 30
0.0
  0
CIRCLE
  5
89
330
1F
100
AcDbEntity
  8
0
  6
Continuous
 62
     7
370
    15
100
AcDbCircle
 10
111.0
 20
58.0
 30
0.0
 40
6.649999999999984
  0
CIRCLE
  5
8A
330
1F
100
AcDbEntity
  8
0
  6
Continuous
 62
     7
370
    15
100
AcDbCircle
 10
-117.3
 20
34.5
 30
0.0
 40
2.499999999999993
  0
CIRCLE
  5
8B
330
1F
100
AcDbEntity
  8
0
  6
Continuous
 62
     7
370
    15
100
AcDbCircle
 10
-88.0
 20
6.0
 30
0.0
 40
2.499999999999991
  0
CIRCLE
  5
8C
330
1F
100
AcDbEntity
  8
0
  6
Continuous
 62
     7
370
    15
100
AcDbCircle
 10
-117.25
 20
-21.0
 30
0.0
 40
2.499999999999986
  0
CIRCLE
  5
8D
330
1F
100
AcDbEntity
  8
0
  6
Continuous
 62
     7
370
    15
100
AcDbCircle
 10
-101.0868683438
 20
-59.8740429451
 30
0.0
 40
2.500000000000007
  0
SPLINE
  5
91
330
1F
100
AcDbEntity
  8
0
  6
Continuous
 62
     7
370
    15
100
AcDbSpline
210
0.0
220
0.0
230
1.0
 70
     8
 71
     3
 72
     8
 73
     4
 74
     0
 42
0.000000001
 43
0.00000001
 40
0.0
 40
0.0
 40
0.0
 40
0.0
 40
1.0
 40
1.0
 40
1.0
 40
1.0
 10
70.0
 20
-29.0
 30
0.0
 10
70.0
 20
-30.99999153180638
 30
0.0
 10
70.55084220833075
 20
-32.83460093836811
 30
0.0
 10
71.65252662499222
 20
-34.50382821968518
 30
0.0
  0
SPLINE
  5
96
330
1F
100
AcDbEntity
  8
0
  6
Continuous
 62
     7
370
    15
100
AcDbSpline
210
0.0
220
0.0
230
1.0
 70
     8
 71
     3
 72
     8
 73
     4
 74
     0
 42
0.000000001
 43
0.00000001
 40
0.0
 40
0.0
 40
0.0
 40
0.0
 40
1.0
 40
1.0
 40
1.0
 40
1.0
 10
-85.0
 20
51.00000000000001
 30
0.0
 10
-96.83333333333334
 20
51.00000000000001
 30
0.0
 10
-103.5
 20
48.00000000000001
 30
0.0
 10
-105.0
 20
42.0
 30
0.0
  0
SPLINE
  5
97
330
1F
100
AcDbEntity
  8
0
  6
Continuous
 62
     7
370
    15
100
AcDbSpline
210
0.0
220
0.0
230
1.0
 70
     8
 71
     3
 72
     8
 73
     4
 74
     0
 42
0.000000001
 43
0.00000001
 40
0.0
 40
0.0
 40
0.0
 40
0.0
 40
1.0
 40
1.0
 40
1.0
 40
1.0
 10
-105.0
 20
42.0
 30
0.0
 10
-108.0
 20
15.0
 30
0.0
 10
-91.99999999999999
 20
15.0
 30
0.0
 10
-83.49999999999999
 20
15.0
 30
0.0
  0
SPLINE
  5
99
330
1F
100
AcDbEntity
  8
0
  6
Continuous
 62
     7
370
    15
100
AcDbSpline
210
0.0
220
0.0
230
1.0
 70
     8
 71
     3
 72
    46
 73
    42
 74
     0
 42
0.000000001
 43
0.00000001
 40
0.0
 40
0.0
 40
0.0
 40
0.0
 40
0.0312499999999998
 40
0.0312499999999998
 40
0.0624999999999995
 40
0.0624999999999995
 40
0.0937499999999993
 40
0.0937499999999993
 40
0.1249999999999991
 40
0.1249999999999991
 40
0.1562499999999988
 40
0.1562499999999988
 40
0.1874999999999986
 40
0.1874999999999986
 40
0.2499999999999987
 40
0.2499999999999987
 40
0.3124999999999988
 40
0.3124999999999988
 40
0.3749999999999991
 40
0.3749999999999991
 40
0.4374999999999991
 40
0.4374999999999991
 40
0.4999999999999992
 40
0.4999999999999992
 40
0.5624999999999993
 40
0.5624999999999993
 40
0.6249999999999993
 40
0.6249999999999993
 40
0.6874999999999994
 40
0.6874999999999994
 40
0.7499999999999996
 40
0.7499999999999996
 40
0.8124999999999997
 40
0.8124999999999997
 40
0.8749999999999997
 40
0.8749999999999997
 40
0.9374999999999998
 40
0.9374999999999998
 40
0.9687499999999999
 40
0.9687499999999999
 40
1.0
 40
1.0
 40
1.0
 40
1.0
 10
-85.00000000000001
 20
-2.999999999999999
 30
0.0
 10
-86.1666666666667
 20
-2.999999999999999
 30
0.0
 10
-87.32352322359252
 20
-2.97293219649881
 30
0.0
 10
-89.57145576024946
 20
-2.910935841218279
 30
0.0
 10
-90.66264037084184
 20
-2.876018924270129
 30
0.0
 10
-92.74795279362705
 20
-2.837758050085712
 30
0.0
 10
-93.74217285083262
 20
-2.834418308976959
 30
0.0
 10
-95.61390450015942
 20
-2.891630399756675
 30
0.0
 10
-96.49149375510031
 20
-2.952180003088433
 30
0.0
 10
-98.11939504497502
 20
-3.162348265259056
 30
0.0
 10
-98.86977184901451
 20
-3.311959174047378
 30
0.0
 10
-100.2396324372973
 20
-3.718439655780103
 30
0.0
 10
-100.8591696702348
 20
-3.975296829541461
 30
0.0
 10
-102.5237967765293
 20
-4.924017374177565
 30
0.0
 10
-103.3737522109963
 20
-5.796838114857435
 30
0.0
 10
-104.6065540163852
 20
-8.042418113349663
 30
0.0
 10
-104.9902942898948
 20
-9.414488567153548
 30
0.0
 10
-105.3717880365448
 20
-12.59515143782163
 30
0.0
 10
-105.3700708230268
 20
-14.40296761829076
 30
0.0
 10
-105.0667922439607
 20
-18.33236203253156
 30
0.0
 10
-104.7655085298299
 20
-20.45314922305422
 30
0.0
 10
-103.9425707226037
 20
-24.85016435369608
 30
0.0
 10
-103.4210260611795
 20
-27.12564605700562
 30
0.0
 10
-102.2248643872849
 20
-31.66144836401125
 30
0.0
 10
-101.5502425437747
 20
-33.92111413839097
 30
0.0
 10
-100.1016633209691
 20
-38.26358871276558
 30
0.0
 10
-99.32761131981466
 20
-40.34586767975199
 30
0.0
 10
-97.72190688527427
 20
-44.19866808242008
 30
0.0
 10
-96.8900650259587
 20
-45.96880525797641
 30
0.0
 10
-95.20272685675059
 20
-49.10299652475177
 30
0.0
 10
-94.3469118184629
 20
-50.4668194930645
 30
0.0
 10
-92.64524250442739
 20
-52.74387971119954
 30
0.0
 10
-91.79887621428077
 20
-53.6570335274311
 30
0.0
 10
-90.16157018701632
 20
-55.04276012359283
 30
0.0
 10
-89.36983168081453
 20
-55.51537869910489
 30
0.0
 10
-87.91836371105317
 20
-56.08502631298599
 30
0.0
 10
-87.25742576989956
 20
-56.18219890372742
 30
0.0
 10
-86.46799795809483
 20
-56.13401706782883
 30
0.0
 10
-86.23910582633675
 20
-56.08602449346279
 30
0.0
 10
-85.8764370680052
 20
-55.94521878943739
 30
0.0
 10
-85.74259447100292
 20
-55.85241206597762
 30
0.0
 10
-85.67373668750392
 20
-55.74808589015741
 30
0.0
  0
SPLINE
  5
9B
330
1F
100
AcDbEntity
  8
0
  6
Continuous
 62
     7
370
    15
100
AcDbSpline
210
0.0
220
0.0
230
1.0
 70
     8
 71
     3
 72
     8
 73
     4
 74
     0
 42
0.000000001
 43
0.00000001
 40
0.0
 40
0.0
 40
0.0
 40
0.0
 40
1.0
 40
1.0
 40
1.0
 40
1.0
 10
-70.0
 20
-29.0
 30
0.0
 10
-70.0
 20
-30.99999153180638
 30
0.0
 10
-70.55084220833075
 20
-32.83460093836811
 30
0.0
 10
-71.65252662499222
 20
-34.50382821968518
 30
0.0
  0
SPLINE
  5
9E
330
1F
100
AcDbEntity
  8
0
  6
Continuous
 62
     7
370
    15
100
AcDbSpline
210
0.0
220
0.0
230
1.0
 70
     8
 71
     3
 72
     8
 73
     4
 74
     0
 42
0.000000001
 43
0.00000001
 40
0.0163569224657416
 40
0.0163569224657416
 40
0.0163569224657416
 40
0.0163569224657416
 40
0.8733063364204758
 40
0.8733063364204758
 40
0.8733063364204758
 40
0.8733063364204758
 10
119.1234267884329
 20
72.33191229400197
 30
0.0
 10
120.9193509784887
 20
72.11063744431353
 30
0.0
 10
121.9695076068469
 20
71.23917591990273
 30
0.0
 10
122.2738966735076
 20
69.71752772076961
 30
0.0
  0
SPLINE
  5
A0
330
1F
100
AcDbEntity
  8
0
  6
Continuous
 62
     7
370
    15
100
AcDbSpline
210
0.0
220
0.0
230
1.0
 70
     8
 71
     3
 72
     8
 73
     4
 74
     0
 42
0.000000001
 43
0.00000001
 40
0.0
 40
0.0
 40
0.0
 40
0.0
 40
0.964158889875816
 40
0.964158889875816
 40
0.964158889875816
 40
0.964158889875816
 10
125.0
 20
46.99999999999999
 30
0.0
 10
135.2072287808187
 20
23.69949349466778
 30
0.0
 10
134.4885310992004
 20
-9.361837842393385
 30
0.0
 10
122.8439069551452
 20
-52.18399401118349
 30
0.0
  0
SPLINE
  5
A1
330
1F
100
AcDbEntity
  8
0
  6
Continuous
 62
     7
370
    15
100
AcDbSpline
210
0.0
220
0.0
230
1.0
 70
     8
 71
     3
 72
     8
 73
     4
 74
     0
 42
0.000000001
 43
0.00000001
 40
0.0
 40
0.0
 40
0.0
 40
0.0
 40
1.0
 40
1.0
 40
1.0
 40
1.0
 10
122.8439069659458
 20
-52.18399397146531
 30
0.0
 10
121.9479689886486
 20
-55.39466465715511
 30
0.0
 10
120.4273347006059
 20
-58.27560453638799
 30
0.0
 10
118.2820041018178
 20
-60.82681360916398
 30
0.0
  0
SPLINE
  5
A2
330
1F
100
AcDbEntity
  8
0
  6
Continuous
 62
     7
370
    15
100
AcDbSpline
210
0.0
220
0.0
230
1.0
 70
     8
 71
     3
 72
     8
 73
     4
 74
     0
 42
0.000000001
 43
0.00000001
 40
0.0996317634120683
 40
0.0996317634120683
 40
0.0996317634120683
 40
0.0996317634120683
 40
1.0
 40
1.0
 40
1.0
 40
1.0
 10
118.282004105972
 20
-60.82681360459927
 30
0.0
 10
108.4986656987711
 20
-71.57695473568884
 30
0.0
 10
97.9046643301138
 20
-75.30135020082241
 30
0.0
 10
86.49999999999999
 20
-72.00000000000001
 30
0.0
  0
SPLINE
  5
A3
330
1F
100
AcDbEntity
  8
0
  6
Continuous
 62
     7
370
    15
100
AcDbSpline
210
0.0
220
0.0
230
1.0
 70
     8
 71
     3
 72
    38
 73
    34
 74
     0
 42
0.000000001
 43
0.00000001
 40
0.0
 40
0.0
 40
0.0
 40
0.0
 40
0.03125
 40
0.03125
 40
0.0625
 40
0.0625
 40
0.125
 40
0.125
 40
0.1875
 40
0.1875
 40
0.25
 40
0.25
 40
0.3124999999999999
 40
0.3124999999999999
 40
0.3749999999999999
 40
0.3749999999999999
 40
0.5
 40
0.5
 40
0.625
 40
0.625
 40
0.6875
 40
0.6875
 40
0.75
 40
0.75
 40
0.8125
 40
0.8125
 40
0.8749999999999999
 40
0.8749999999999999
 40
0.9374999999999999
 40
0.9374999999999999
 40
0.9687499999999999
 40
0.9687499999999999
 40
1.0
 40
1.0
 40
1.0
 40
1.0
 10
-86.5
 20
-72.00000000000001
 30
0.0
 10
-83.49652777777777
 20
-71.58333333333334
 30
0.0
 10
-80.65516188101209
 20
-71.19694674663731
 30
0.0
 10
-75.23970670472005
 20
-70.47514336600352
 30
0.0
 10
-72.6657331559663
 20
-70.13974655184485
 30
0.0
 10
-65.27722934024132
 20
-69.19876776587552
 30
0.0
 10
-60.79305785123967
 20
-68.65785123966941
 30
0.0
 10
-52.44330578512396
 20
-67.70578512396693
 30
0.0
 10
-48.57914956616258
 20
-67.29487828189127
 30
0.0
 10
-41.29098030396734
 20
-66.57525158823863
 30
0.0
 10
-37.86777777777782
 20
-66.2666666666667
 30
0.0
 10
-31.33222222222225
 20
-65.73333333333336
 30
0.0
 10
-28.22036093035456
 20
-65.50866265632942
 30
0.0
 10
-22.20878886721632
 20
-65.13101345703092
 30
0.0
 10
-19.30939783320738
 20
-64.97808012093729
 30
0.0
 10
-10.80977576215674
 20
-64.61526832955407
 30
0.0
 10
-5.40625
 20
-64.50000000000003
 30
0.0
 10
5.40624999999999
 20
-64.50000000000001
 30
0.0
 10
10.80977576215673
 20
-64.61526832955406
 30
0.0
 10
19.30939783320738
 20
-64.97808012093728
 30
0.0
 10
22.20878886721632
 20
-65.13101345703093
 30
0.0
 10
28.22036093035456
 20
-65.5086626563294
 30
0.0
 10
31.33222222222225
 20
-65.73333333333333
 30
0.0
 10
37.8677777777778
 20
-66.26666666666668
 30
0.0
 10
41.29098030396734
 20
-66.57525158823861
 30
0.0
 10
48.57914956616256
 20
-67.29487828189127
 30
0.0
 10
52.443305785124
 20
-67.70578512396695
 30
0.0
 10
60.79305785123971
 20
-68.65785123966944
 30
0.0
 10
65.2772293402413
 20
-69.19876776587552
 30
0.0
 10
72.66573315596632
 20
-70.13974655184485
 30
0.0
 10
75.23970670472008
 20
-70.47514336600352
 30
0.0
 10
80.65516188101208
 20
-71.19694674663732
 30
0.0
 10
83.49652777777776
 20
-71.5833333333333
 30
0.0
 10
86.5
 20
-72.00000000000001
 30
0.0
  0
SPLINE
  5
A4
330
1F
100
AcDbEntity
  8
0
  6
Continuous
 62
     7
370
    15
100
AcDbSpline
210
0.0
220
0.0
230
1.0
 70
     8
 71
     3
 72
     8
 73
     4
 74
     0
 42
0.000000001
 43
0.00000001
 40
0.0996317635395067
 40
0.0996317635395067
 40
0.0996317635395067
 40
0.0996317635395067
 40
1.0
 40
1.0
 40
1.0
 40
1.0
 10
-118.2820041018178
 20
-60.82681360916401
 30
0.0
 10
-108.4986656957722
 20
-71.57695473674315
 30
0.0
 10
-97.90466432849959
 20
-75.30135020035515
 30
0.0
 10
-86.49999999999999
 20
-72.00000000000001
 30
0.0
  0
SPLINE
  5
A5
330
1F
100
AcDbEntity
  8
0
  6
Continuous
 62
     7
370
    15
100
AcDbSpline
210
0.0
220
0.0
230
1.0
 70
     8
 71
     3
 72
     8
 73
     4
 74
     0
 42
0.000000001
 43
0.00000001
 40
0.0
 40
0.0
 40
0.0
 40
0.0
 40
1.0
 40
1.0
 40
1.0
 40
1.0
 10
-122.8439069659458
 20
-52.18399397146531
 30
0.0
 10
-121.9479689886486
 20
-55.39466465715511
 30
0.0
 10
-120.4273347006059
 20
-58.27560453638799
 30
0.0
 10
-118.2820041018178
 20
-60.82681360916398
 30
0.0
  0
SPLINE
  5
A6
330
1F
100
AcDbEntity
  8
0
  6
Continuous
 62
     7
370
    15
100
AcDbSpline
210
0.0
220
0.0
230
1.0
 70
     8
 71
     3
 72
     8
 73
     4
 74
     0
 42
0.000000001
 43
0.00000001
 40
0.0
 40
0.0
 40
0.0
 40
0.0
 40
0.9641588895777256
 40
0.9641588895777256
 40
0.9641588895777256
 40
0.9641588895777256
 10
-125.0
 20
46.99999999999999
 30
0.0
 10
-135.2072287776629
 20
23.69949350187163
 30
0.0
 10
-134.4885310996448
 20
-9.361837821950145
 30
0.0
 10
-122.8439069659458
 20
-52.18399397146531
 30
0.0
  0
SPLINE
  5
A8
330
1F
100
AcDbEntity
  8
0
  6
Continuous
 62
     7
370
    15
100
AcDbSpline
210
0.0
220
0.0
230
1.0
 70
     8
 71
     3
 72
     8
 73
     4
 74
     0
 42
0.000000001
 43
0.00000001
 40
0.0163569224657416
 40
0.0163569224657416
 40
0.0163569224657416
 40
0.0163569224657416
 40
0.8733063364204758
 40
0.8733063364204758
 40
0.8733063364204758
 40
0.8733063364204758
 10
-119.1234267884329
 20
72.33191229400197
 30
0.0
 10
-120.9193509784887
 20
72.11063744431353
 30
0.0
 10
-121.9695076068469
 20
71.23917591990273
 30
0.0
 10
-122.2738966735076
 20
69.71752772076961
 30
0.0
  0
SPLINE
  5
AD
330
1F
100
AcDbEntity
  8
0
  6
Continuous
 62
     7
370
    15
100
AcDbSpline
210
0.0
220
0.0
230
1.0
 70
     8
 71
     3
 72
     8
 73
     4
 74
     0
 42
0.000000001
 43
0.00000001
 40
0.0
 40
0.0
 40
0.0
 40
0.0
 40
1.0
 40
1.0
 40
1.0
 40
1.0
 10
105.0
 20
42.0
 30
0.0
 10
108.0
 20
15.0
 30
0.0
 10
91.99999999999999
 20
15.0
 30
0.0
 10
83.49999999999999
 20
15.0
 30
0.0
  0
SPLINE
  5
AE
330
1F
100
AcDbEntity
  8
0
  6
Continuous
 62
     7
370
    15
100
AcDbSpline
210
0.0
220
0.0
230
1.0
 70
     8
 71
     3
 72
     8
 73
     4
 74
     0
 42
0.000000001
 43
0.00000001
 40
0.0
 40
0.0
 40
0.0
 40
0.0
 40
1.0
 40
1.0
 40
1.0
 40
1.0
 10
85.0
 20
51.00000000000001
 30
0.0
 10
96.83333333333334
 20
51.00000000000001
 30
0.0
 10
103.5
 20
48.00000000000001
 30
0.0
 10
105.0
 20
42.0
 30
0.0
  0
CIRCLE
  5
AF
330
1F
100
AcDbEntity
  8
0
  6
Continuous
 62
     7
370
    15
100
AcDbCircle
 10
-31.0
 20
73.5
 30
0.0
 40
1.999999999999986
  0
CIRCLE
  5
B0
330
1F
100
AcDbEntity
  8
0
  6
Continuous
 62
     7
370
    15
100
AcDbCircle
 10
-32.4600319489
 20
-46.1531270944
 30
0.0
 40
4.700000000000017
  0
CIRCLE
  5
B1
330
1F
100
AcDbEntity
  8
0
  6
Continuous
 62
     7
370
    15
100
AcDbCircle
 10
-23.8156986041
 20
13.75
 30
0.0
 40
2.000000000000009
  0
CIRCLE
  5
B2
330
1F
100
AcDbEntity
  8
0
  6
Continuous
 62
     7
370
    15
100
AcDbCircle
 10
-23.8156986041
 20
-13.75
 30
0.0
 40
2.0
  0
CIRCLE
  5
B3
330
1F
100
AcDbEntity
  8
0
  6
Continuous
 62
     7
370
    15
100
AcDbCircle
 10
0.0
 20
-27.5
 30
0.0
 40
2.0
  0
CIRCLE
  5
B4
330
1F
100
AcDbEntity
  8
0
  6
Continuous
 62
     7
370
    15
100
AcDbCircle
 10
23.8156986041
 20
-13.75
 30
0.0
 40
2.000000000000007
  0
CIRCLE
  5
B5
330
1F
100
AcDbEntity
  8
0
  6
Continuous
 62
     7
370
    15
100
AcDbCircle
 10
63.3761332977
 20
54.2767831141
 30
0.0
 40
5.800000000000004
  0
CIRCLE
  5
B6
330
1F
100
AcDbEntity
  8
0
  6
Continuous
 62
     7
370
    15
100
AcDbCircle
 10
-57.5
 20
29.9771728813
 30
0.0
 40
5.800000000000001
  0
CIRCLE
  5
B7
330
1F
100
AcDbEntity
  8
0
  6
Continuous
 62
     7
370
    15
100
AcDbCircle
 10
-86.6125295853
 20
63.500116978
 30
0.0
 40
5.79999999999999
  0
CIRCLE
  5
B8
330
1F
100
AcDbEntity
  8
0
  6
Continuous
 62
     7
370
    15
100
AcDbCircle
 10
-111.0
 20
58.0
 30
0.0
 40
5.799999999999997
  0
CIRCLE
  5
B9
330
1F
100
AcDbEntity
  8
0
  6
Continuous
 62
     7
370
    15
100
AcDbCircle
 10
-64.5777948981
 20
6.0
 30
0.0
 40
5.800000000000015
  0
CIRCLE
  5
BA
330
1F
100
AcDbEntity
  8
0
  6
Continuous
 62
     7
370
    15
100
AcDbCircle
 10
-57.5
 20
-23.1531270944
 30
0.0
 40
5.800000000000001
  0
CIRCLE
  5
BB
330
1F
100
AcDbEntity
  8
0
  6
Continuous
 62
     7
370
    15
100
AcDbCircle
 10
57.5
 20
-23.1531270944
 30
0.0
 40
5.799999999999997
  0
CIRCLE
  5
BC
330
1F
100
AcDbEntity
  8
0
  6
Continuous
 62
     7
370
    15
100
AcDbCircle
 10
64.5777948981
 20
6.0
 30
0.0
 40
5.800000000000019
  0
CIRCLE
  5
BD
330
1F
100
AcDbEntity
  8
0
  6
Continuous
 62
     7
370
    15
100
AcDbCircle
 10
-63.3761332977
 20
54.2767831141
 30
0.0
 40
5.800000000000011
  0
CIRCLE
  5
BE
330
1F
100
AcDbEntity
  8
0
  6
Continuous
 62
     7
370
    15
100
AcDbCircle
 10
111.0
 20
58.0
 30
0.0
 40
5.799999999999962
  0
CIRCLE
  5
BF
330
1F
100
AcDbEntity
  8
0
  6
Continuous
 62
     7
370
    15
100
AcDbCircle
 10
86.6125295853
 20
63.500116978
 30
0.0
 40
5.799999999999976
  0
CIRCLE
  5
C0
330
1F
100
AcDbEntity
  8
0
  6
Continuous
 62
     7
370
    15
100
AcDbCircle
 10
57.5
 20
29.9771728813
 30
0.0
 40
5.800000000000001
  0
CIRCLE
  5
C1
330
1F
100
AcDbEntity
  8
0
  6
HIDDEN
 62
     7
370
     0
100
AcDbCircle
 10
39.8348200815
 20
-42.8031270944
 30
0.0
 40
1.499999999999993
  0
CIRCLE
  5
C2
330
1F
100
AcDbEntity
  8
0
  6
HIDDEN
 62
     7
370
     0
100
AcDbCircle
 10
-25.0852438164
 20
-42.8031270944
 30
0.0
 40
1.500000000000014
  0
LINE
  5
C3
330
1F
100
AcDbEntity
  8
0
  6
Continuous
 62
     7
370
    15
100
AcDbLine
 10
-79.0
 20
15.0
 30
0.0
 11
-83.5
 21
15.0
 31
0.0
  0
LINE
  5
C4
330
1F
100
AcDbEntity
  8
0
  6
Continuous
 62
     7
370
    15
100
AcDbLine
 10
79.0
 20
-3.0
 30
0.0
 11
85.0
 21
-3.0
 31
0.0
  0
LINE
  5
C5
330
1F
100
AcDbEntity
  8
0
  6
Continuous
 62
     7
370
    15
100
AcDbLine
 10
70.0
 20
-12.0
 30
0.0
 11
70.0
 21
-29.0
 31
0.0
  0
LINE
  5
C6
330
1F
100
AcDbEntity
  8
0
  6
Continuous
 62
     7
370
    15
100
AcDbLine
 10
71.652526625
 20
-34.5038282197
 30
0.0
 11
85.6737366875
 21
-55.7480858902
 31
0.0
  0
LINE
  5
C7
330
1F
100
AcDbEntity
  8
0
  6
Continuous
 62
     7
370
    15
100
AcDbLine
 10
-70.0
 20
36.0
 30
0.0
 11
-70.0
 21
24.0
 31
0.0
  0
LINE
  5
C8
330
1F
100
AcDbEntity
  8
0
  6
Continuous
 62
     7
370
    15
100
AcDbLine
 10
-79.0
 20
-3.0
 30
0.0
 11
-85.0
 21
-3.0
 31
0.0
  0
LINE
  5
C9
330
1F
100
AcDbEntity
  8
0
  6
Continuous
 62
     7
370
    15
100
AcDbLine
 10
-71.652526625
 20
-34.5038282197
 30
0.0
 11
-85.6737366875
 21
-55.7480858902
 31
0.0
  0
LINE
  5
CA
330
1F
100
AcDbEntity
  8
0
  6
Continuous
 62
     7
370
    15
100
AcDbLine
 10
-70.0
 20
-12.0
 30
0.0
 11
-70.0
 21
-29.0
 31
0.0
  0
LINE
  5
CB
330
1F
100
AcDbEntity
  8
0
  6
Continuous
 62
     7
370
    15
100
AcDbLine
 10
70.0
 20
78.0
 30
0.0
 11
119.1234267884
 21
72.3319122936
 31
0.0
  0
LINE
  5
CC
330
1F
100
AcDbEntity
  8
0
  6
Continuous
 62
     7
370
    15
100
AcDbLine
 10
122.2738966735
 20
69.7175277208
 30
0.0
 11
125.0
 21
47.0
 31
0.0
  0
LINE
  5
CD
330
1F
100
AcDbEntity
  8
0
  6
Continuous
 62
     7
370
    15
100
AcDbLine
 10
-122.2738966735
 20
69.7175277208
 30
0.0
 11
-125.0
 21
47.0
 31
0.0
  0
LINE
  5
CE
330
1F
100
AcDbEntity
  8
0
  6
Continuous
 62
     7
370
    15
100
AcDbLine
 10
-70.0
 20
78.0
 30
0.0
 11
-119.1234267884
 21
72.3319122936
 31
0.0
  0
LINE
  5
CF
330
1F
100
AcDbEntity
  8
0
  6
Continuous
 62
     7
370
    15
100
AcDbLine
 10
70.0
 20
36.0
 30
0.0
 11
70.0
 21
24.0
 31
0.0
  0
LINE
  5
D0
330
1F
100
AcDbEntity
  8
0
  6
Continuous
 62
     7
370
    15
100
AcDbLine
 10
79.0
 20
15.0
 30
0.0
 11
83.5
 21
15.0
 31
0.0
  0
ARC
  5
D1
330
1F
100
AcDbEntity
  8
0
  6
Continuous
 62
     7
370
    15
100
AcDbCircle
 10
85.0
 20
36.0
 30
0.0
 40
15.00000000000006
100
AcDbArc
 50
90.0
 51
180.0
  0
ARC
  5
D2
330
1F
100
AcDbEntity
  8
0
  6
Continuous
 62
     7
370
    15
100
AcDbCircle
 10
-79.0
 20
-12.0
 30
0.0
 40
9.000000000000021
100
AcDbArc
 50
0.0
 51
90.0
  0
ARC
  5
D3
330
1F
100
AcDbEntity
  8
0
  6
Continuous
 62
     7
370
    15
100
AcDbCircle
 10
79.0
 20
-12.0
 30
0.0
 40
9.0
100
AcDbArc
 50
90.0
 51
180.0
  0
ARC
  5
D4
330
1F
100
AcDbEntity
  8
0
  6
Continuous
 62
     7
370
    15
100
AcDbCircle
 10
-79.0
 20
24.0
 30
0.0
 40
9.00000000000001
100
AcDbArc
 50
270.0
 51
0.0
  0
ARC
  5
D5
330
1F
100
AcDbEntity
  8
0
  6
Continuous
 62
     7
370
    15
100
AcDbCircle
 10
-85.0
 20
36.0
 30
0.0
 40
15.00000000000006
100
AcDbArc
 50
0.0
 51
90.0
  0
ARC
  5
D6
330
1F
100
AcDbEntity
  8
0
  6
Continuous
 62
     7
370
    15
100
AcDbCircle
 10
79.0
 20
24.0
 30
0.0
 40
9.000000000000025
100
AcDbArc
 50
180.0
 51
270.0
  0
MTEXT
  5
D8
330
1F
100
AcDbEntity
  8
0
  6
Continuous
 62
     7
100
AcDbMText
 10
-132.1231159387
 20
-74.17825173
 30
0.0
 40
4.83362
 41
0.0
 71
     1
 72
     1
  1
SolidWorks Student Edition.
  7
SLDTEXTSTYLE0
 73
     1
 44
1.0
  0
MTEXT
  5
D9
330
1F
100
AcDbEntity
  8
0
  6
Continuous
 62
     7
100
AcDbMText
 10
-132.1231159387
 20
-81.42868173
 30
0.0
 40
4.83362
 41
0.0
 71
     1
 72
     1
  1
For Academic Use Only.
  7
SLDTEXTSTYLE0
 73
     1
 44
1.0
  0
ENDSEC
  0
SECTION
  2
OBJECTS
  0
DICTIONARY
  5
C
330
0
100
AcDbDictionary
281
     1
  3
ACAD_GROUP
350
D
  3
ACAD_LAYOUT
350
1A
  3
ACAD_MLINESTYLE
350
17
  3
ACAD_PLOTSETTINGS
350
19
  3
ACAD_PLOTSTYLENAME
350
E
  3
ACAD_SCALELIST
350
47
  0
DICTIONARY
  5
D
102
{ACAD_REACTORS
330
C
102
}
330
C
100
AcDbDictionary
281
     1
  0
DICTIONARY
  5
1A
102
{ACAD_REACTORS
330
C
102
}
330
C
100
AcDbDictionary
281
     1
  3
Layout1
350
1E
  3
Layout2
350
26
  3
Model
350
22
  0
DICTIONARY
  5
17
102
{ACAD_REACTORS
330
C
102
}
330
C
100
AcDbDictionary
281
     1
  3
Standard
350
18
  0
DICTIONARY
  5
19
102
{ACAD_REACTORS
330
C
102
}
330
C
100
AcDbDictionary
281
     1
  0
ACDBDICTIONARYWDFLT
  5
E
102
{ACAD_REACTORS
330
C
102
}
330
C
100
AcDbDictionary
281
     1
  3
Normal
350
F
100
AcDbDictionaryWithDefault
340
F
  0
DICTIONARY
  5
47
102
{ACAD_REACTORS
330
C
102
}
330
C
100
AcDbDictionary
281
     1
  3
A0
350
48
  3
A1
350
49
  3
A2
350
4A
  3
A3
350
4B
  3
A4
350
4C
  3
A5
350
4D
  3
A6
350
4E
  3
A7
350
4F
  3
A8
350
50
  3
A9
350
51
  3
B0
350
52
  3
B1
350
53
  3
B2
350
54
  3
B3
350
55
  3
B4
350
56
  3
B5
350
57
  3
B6
350
58
  3
B7
350
59
  3
B8
350
5A
  3
B9
350
5B
  3
C0
350
5C
  3
C1
350
5D
  3
C2
350
5E
  3
C3
350
5F
  3
C4
350
60
  3
C5
350
61
  3
C6
350
62
  3
C7
350
63
  3
C8
350
64
  3
C9
350
65
  3
D0
350
66
  3
D1
350
67
  3
D2
350
68
  0
LAYOUT
  5
1E
102
{ACAD_REACTORS
330
1A
102
}
330
1A
100
AcDbPlotSettings
  1

  2
none_device
  4

  6

 40
0.0
 41
0.0
 42
0.0
 43
0.0
 44
0.0
 45
0.0
 46
0.0
 47
0.0
 48
0.0
 49
0.0
140
0.0
141
0.0
142
1.0
143
1.0
 70
   688
 72
     1
 73
     0
 74
     5
  7

 75
    16
147
1.0
148
0.0
149
0.0
100
AcDbLayout
  1
Layout1
 70
     1
 71
     1
 10
0.0
 20
0.0
 11
420.0
 21
297.0
 12
0.0
 22
0.0
 32
0.0
 14
1.0000000000E+20
 24
1.0000000000E+20
 34
1.0000000000E+20
 15
-1.0000000000E+20
 25
-1.0000000000E+20
 35
-1.0000000000E+20
146
0.0
 13
0.0
 23
0.0
 33
0.0
 16
1.0
 26
0.0
 36
0.0
 17
0.0
 27
1.0
 37
0.0
 76
     0
330
1B
  0
LAYOUT
  5
26
102
{ACAD_REACTORS
330
1A
102
}
330
1A
100
AcDbPlotSettings
  1

  2
none_device
  4

  6

 40
0.0
 41
0.0
 42
0.0
 43
0.0
 44
0.0
 45
0.0
 46
0.0
 47
0.0
 48
0.0
 49
0.0
140
0.0
141
0.0
142
1.0
143
1.0
 70
   688
 72
     1
 73
     0
 74
     5
  7

 75
    16
147
1.0
148
0.0
149
0.0
100
AcDbLayout
  1
Layout2
 70
     1
 71
     2
 10
0.0
 20
0.0
 11
0.0
 21
0.0
 12
0.0
 22
0.0
 32
0.0
 14
0.0
 24
0.0
 34
0.0
 15
0.0
 25
0.0
 35
0.0
146
0.0
 13
0.0
 23
0.0
 33
0.0
 16
1.0
 26
0.0
 36
0.0
 17
0.0
 27
1.0
 37
0.0
 76
     0
330
23
  0
LAYOUT
  5
22
102
{ACAD_REACTORS
330
1A
102
}
330
1A
100
AcDbPlotSettings
  1

  2
none_device
  4
ANSI_A_(11.00_x_8.50_Inches)
  6

 40
6.35
 41
19.05
 42
6.35000508
 43
19.05000254
 44
279.4
 45
215.9
 46
133.3499974599
 47
85.3455140171
 48
0.0
 49
0.0
140
0.0
141
0.0
142
0.0412115621
143
1.0
 70
  1696
 72
     0
 73
     0
 74
     0
  7

 75
     0
147
0.0179189148
148
-1300.4909072572
149
0.0
100
AcDbLayout
  1
Model
 70
     1
 71
     0
 10
0.0
 20
0.0
 11
420.0
 21
297.0
 12
0.0
 22
0.0
 32
0.0
 14
-132.1231159387
 24
-73.1586853383
 34
0.0
 15
132.123115939
 25
79.95
 35
0.0
146
0.0
 13
0.0
 23
0.0
 33
0.0
 16
1.0
 26
0.0
 36
0.0
 17
0.0
 27
1.0
 37
0.0
 76
     0
330
1F
331
29
  0
MLINESTYLE
  5
18
102
{ACAD_REACTORS
330
17
102
}
330
17
100
AcDbMlineStyle
  2
Standard
 70
     0
  3

 62
   256
 51
90.0
 52
90.0
 71
     2
 49
0.5
 62
   256
  6
BYLAYER
 49
-0.5
 62
   256
  6
BYLAYER
  0
ACDBPLACEHOLDER
  5
F
102
{ACAD_REACTORS
330
E
102
}
330
E
  0
SCALE
  5
48
102
{ACAD_REACTORS
330
47
102
}
330
47
100
AcDbScale
 70
     0
300
1:1
140
1.0
141
1.0
290
     1
  0
SCALE
  5
49
102
{ACAD_REACTORS
330
47
102
}
330
47
100
AcDbScale
 70
     0
300
1:2
140
1.0
141
2.0
290
     0
  0
SCALE
  5
4A
102
{ACAD_REACTORS
330
47
102
}
330
47
100
AcDbScale
 70
     0
300
1:4
140
1.0
141
4.0
290
     0
  0
SCALE
  5
4B
102
{ACAD_REACTORS
330
47
102
}
330
47
100
AcDbScale
 70
     0
300
1:5
140
1.0
141
5.0
290
     0
  0
SCALE
  5
4C
102
{ACAD_REACTORS
330
47
102
}
330
47
100
AcDbScale
 70
     0
300
1:8
140
1.0
141
8.0
290
     0
  0
SCALE
  5
4D
102
{ACAD_REACTORS
330
47
102
}
330
47
100
AcDbScale
 70
     0
300
1:10
140
1.0
141
10.0
290
     0
  0
SCALE
  5
4E
102
{ACAD_REACTORS
330
47
102
}
330
47
100
AcDbScale
 70
     0
300
1:16
140
1.0
141
16.0
290
     0
  0
SCALE
  5
4F
102
{ACAD_REACTORS
330
47
102
}
330
47
100
AcDbScale
 70
     0
300
1:20
140
1.0
141
20.0
290
     0
  0
SCALE
  5
50
102
{ACAD_REACTORS
330
47
102
}
330
47
100
AcDbScale
 70
     0
300
1:30
140
1.0
141
30.0
290
     0
  0
SCALE
  5
51
102
{ACAD_REACTORS
330
47
102
}
330
47
100
AcDbScale
 70
     0
300
1:40
140
1.0
141
40.0
290
     0
  0
SCALE
  5
52
102
{ACAD_REACTORS
330
47
102
}
330
47
100
AcDbScale
 70
     0
300
1:50
140
1.0
141
50.0
290
     0
  0
SCALE
  5
53
102
{ACAD_REACTORS
330
47
102
}
330
47
100
AcDbScale
 70
     0
300
1:100
140
1.0
141
100.0
290
     0
  0
SCALE
  5
54
102
{ACAD_REACTORS
330
47
102
}
330
47
100
AcDbScale
 70
     0
300
2:1
140
2.0
141
1.0
290
     0
  0
SCALE
  5
55
102
{ACAD_REACTORS
330
47
102
}
330
47
100
AcDbScale
 70
     0
300
4:1
140
4.0
141
1.0
290
     0
  0
SCALE
  5
56
102
{ACAD_REACTORS
330
47
102
}
330
47
100
AcDbScale
 70
     0
300
8:1
140
8.0
141
1.0
290
     0
  0
SCALE
  5
57
102
{ACAD_REACTORS
330
47
102
}
330
47
100
AcDbScale
 70
     0
300
10:1
140
10.0
141
1.0
290
     0
  0
SCALE
  5
58
102
{ACAD_REACTORS
330
47
102
}
330
47
100
AcDbScale
 70
     0
300
100:1
140
100.0
141
1.0
290
     0
  0
SCALE
  5
59
102
{ACAD_REACTORS
330
47
102
}
330
47
100
AcDbScale
 70
     0
300
1/128" = 1'-0"
140
0.0078125
141
12.0
290
     0
  0
SCALE
  5
5A
102
{ACAD_REACTORS
330
47
102
}
330
47
100
AcDbScale
 70
     0
300
1/64" = 1'-0"
140
0.015625
141
12.0
290
     0
  0
SCALE
  5
5B
102
{ACAD_REACTORS
330
47
102
}
330
47
100
AcDbScale
 70
     0
300
1/32" = 1'-0"
140
0.03125
141
12.0
290
     0
  0
SCALE
  5
5C
102
{ACAD_REACTORS
330
47
102
}
330
47
100
AcDbScale
 70
     0
300
1/16" = 1'-0"
140
0.0625
141
12.0
290
     0
  0
SCALE
  5
5D
102
{ACAD_REACTORS
330
47
102
}
330
47
100
AcDbScale
 70
     0
300
3/32" = 1'-0"
140
0.09375
141
12.0
290
     0
  0
SCALE
  5
5E
102
{ACAD_REACTORS
330
47
102
}
330
47
100
AcDbScale
 70
     0
300
1/8" = 1'-0"
140
0.125
141
12.0
290
     0
  0
SCALE
  5
5F
102
{ACAD_REACTORS
330
47
102
}
330
47
100
AcDbScale
 70
     0
300
3/16" = 1'-0"
140
0.1875
141
12.0
290
     0
  0
SCALE
  5
60
102
{ACAD_REACTORS
330
47
102
}
330
47
100
AcDbScale
 70
     0
300
1/4" = 1'-0"
140
0.25
141
12.0
290
     0
  0
SCALE
  5
61
102
{ACAD_REACTORS
330
47
102
}
330
47
100
AcDbScale
 70
     0
300
3/8" = 1'-0"
140
0.375
141
12.0
290
     0
  0
SCALE
  5
62
102
{ACAD_REACTORS
330
47
102
}
330
47
100
AcDbScale
 70
     0
300
1/2" = 1'-0"
140
0.5
141
12.0
290
     0
  0
SCALE
  5
63
102
{ACAD_REACTORS
330
47
102
}
330
47
100
AcDbScale
 70
     0
300
3/4" = 1'-0"
140
0.75
141
12.0
290
     0
  0
SCALE
  5
64
102
{ACAD_REACTORS
330
47
102
}
330
47
100
AcDbScale
 70
     0
300
1" = 1'-0"
140
1.0
141
12.0
290
     0
  0
SCALE
  5
65
102
{ACAD_REACTORS
330
47
102
}
330
47
100
AcDbScale
 70
     0
300
1-1/2" = 1'-0"
140
1.5
141
12.0
290
     0
  0
SCALE
  5
66
102
{ACAD_REACTORS
330
47
102
}
330
47
100
AcDbScale
 70
     0
300
3" = 1'-0"
140
3.0
141
12.0
290
     0
  0
SCALE
  5
67
102
{ACAD_REACTORS
330
47
102
}
330
47
100
AcDbScale
 70
     0
300
6" = 1'-0"
140
6.0
141
12.0
290
     0
  0
SCALE
  5
68
102
{ACAD_REACTORS
330
47
102
}
330
47
100
AcDbScale
 70
     0
300
1'-0" = 1'-0"
140
12.0
141
12.0
290
     0
  0
ENDSEC
  0
EOF
